<?xml version="1.0" encoding="UTF-8" standalone="no"?>
<svg
   xmlns:dc="http://purl.org/dc/elements/1.1/"
   xmlns:cc="http://creativecommons.org/ns#"
   xmlns:rdf="http://www.w3.org/1999/02/22-rdf-syntax-ns#"
   xmlns:svg="http://www.w3.org/2000/svg"
   xmlns="http://www.w3.org/2000/svg"
   id="svg864"
   version="1.1"
   viewBox="0 0 61.609928 10.37597"
   height="10.37597mm"
   width="61.609928mm">
  <defs
     id="defs858" />
  <metadata
     id="metadata861">
    <rdf:RDF>
      <cc:Work
         rdf:about="">
        <dc:format>image/svg+xml</dc:format>
        <dc:type
           rdf:resource="http://purl.org/dc/dcmitype/StillImage" />
        <dc:title></dc:title>
      </cc:Work>
    </rdf:RDF>
  </metadata>
  <g
     transform="translate(-174.05813,-133.90725)"
     id="layer1">
    <g
       style="opacity:1;stop-opacity:1"
       id="g4555"
       transform="translate(44.02277,32.121243)">
      <path
         style="fill:#000000;stroke-width:0.206057"
         d="m 164.63575,107.09572 v -2.47268 h -1.82132 -1.23635 v -0.61817 -0.61817 h 3.46933 2.43533 v 0.61817 0.61817 h -0.41211 -1.70811 v 2.47268 2.47269 h -0.31511 -0.41166 z m 3.73878,-0.61817 v -3.09085 h 1.31519 1.44239 v 0.61817 0.61817 h 0.60528 0.75578 v 0.61817 0.61817 h -0.75578 -0.60528 v 1.23634 1.23634 h 0.60528 0.75578 v 0.61817 0.61818 h -0.75578 -0.60528 v -0.61818 -0.61817 h -0.61817 -0.61817 v -0.61816 -0.61818 h -0.20605 -0.61818 v 1.23634 1.23635 h -0.49096 -0.20605 z m 2.75758,-1.23634 v -0.61817 h -1.23634 -0.82423 v 0.61817 0.61817 h 0.82423 1.23634 z m 3.40025,3.70902 v -0.61817 h -0.42655 -0.69694 v -2.47268 -2.47268 h 0.69694 0.42655 v 2.47268 2.47268 h 1.23634 1.81794 v -2.47268 -2.47268 h 1.03028 0.7693 v 2.47268 2.47268 h -0.7693 -1.03028 v 0.61817 0.61818 h -1.81794 -1.23634 z m 7.02891,0 v -0.61817 h -0.66586 -0.80122 v -1.85451 -1.85451 h 0.80122 0.66586 v -0.61817 -0.61817 h 1.41969 1.23635 v 0.61817 0.61817 h 0.37994 0.39128 v 0.61817 0.20605 h -0.39128 -0.37994 v -0.20605 -0.61817 h -1.23635 -1.41969 v 1.85451 1.85451 h 1.41969 1.23635 v -0.61816 -0.61818 h 0.37994 0.39128 v 0.61818 0.61816 h -0.39128 -0.37994 v 0.61817 0.61818 h -1.23635 -1.41969 z m 4.93405,-2.47268 v -3.09085 h 0.20606 0.52741 v 1.23634 1.23634 h 0.32565 0.61817 v -0.61817 -0.61817 h 0.61817 0.61818 v -0.61817 -0.61817 h 0.61816 0.61817 v 0.61817 0.61817 h -0.61817 -0.61816 v 0.61817 0.61817 h -0.61818 -0.61817 v 0.61817 0.61817 h 0.61817 0.61818 v 0.61818 0.61816 h 0.61816 0.61817 v 0.61817 0.61818 h -0.61817 -0.61816 v -0.61818 -0.61817 h -0.61818 -0.61817 v -0.61816 -0.61818 h -0.61817 -0.32565 v 1.23634 1.23635 h -0.52741 -0.20606 z"
         id="path4519" />
      <path
         style="fill:#000000;stroke-width:0.114739"
         d="m 157.08118,108.35086 v -2.8111 h 1.43424 1.43424 v 0.57369 0.5737 h 0.34422 0.34422 v 0.86054 0.86055 h -0.34422 -0.34422 v 0.51632 0.51633 h -1.09002 -1.09002 v 0.86054 0.86055 h -0.34422 -0.34422 z m 2.86848,-0.80317 v -0.86054 h -1.09002 -1.09002 v 0.86054 0.86055 h 1.09002 1.09002 z m -25.7016,1.03265 v -0.86054 h -0.51633 -0.51632 v -0.51633 -0.51632 h -0.51633 -0.51633 v -0.5737 -0.57369 h -0.57369 -0.5737 v -0.86055 -0.86054 h 0.5737 0.57369 v -0.51633 -0.51633 h 1.03266 1.03265 v 0.51633 0.51633 h 0.34421 0.34423 v -0.51633 -0.51633 h 1.09001 1.09003 v 0.51633 0.51633 h 0.34422 0.34422 v 0.86054 0.86055 h -0.34422 -0.34422 v 0.57369 0.5737 h -0.51633 -0.51632 v 0.51632 0.51633 h -0.5737 -0.57369 v 0.86054 0.86055 h -0.34423 -0.34421 z m 0.68844,-1.37687 v -0.51632 h 0.57369 0.5737 v -0.5737 -0.57369 h 0.51632 0.51633 v -0.86055 -0.86054 h -1.09003 -1.09001 v 0.51632 0.51633 h -0.34423 -0.34421 v -0.51633 -0.51632 h -1.03265 -1.03266 v 0.86054 0.86055 h 0.51633 0.51633 v 0.57369 0.5737 h 0.51632 0.51633 v 0.51632 0.51633 h 0.34421 0.34423 z m 6.08118,1.72109 v -0.51632 h -0.5737 -0.5737 v -0.86055 -0.86054 h 0.5737 0.5737 v -0.5737 -0.57369 h 0.86054 0.86055 v -0.86055 -0.86054 h 0.86054 0.86055 v 2.8111 2.81112 h -1.72109 -1.72109 z m 1.72109,-1.37687 v -0.86054 h -0.5737 -0.5737 v 0.86054 0.86055 h 0.5737 0.5737 z m 2.75374,-0.0574 v -1.95056 h 0.51633 0.51633 v 1.43424 1.43424 h 0.5737 0.57369 v -1.43424 -1.43424 h 0.34422 0.34421 v 1.95056 1.95057 h -1.43424 -1.43424 z m 4.93379,0 v -1.95056 h 2.81111 2.81112 v 1.95056 1.95057 h -0.51633 -0.51632 v -1.37687 -1.37687 h -0.91792 -0.91791 v 1.37687 1.37687 h -0.45896 -0.45896 v -1.37687 -1.37687 h -0.57369 -0.5737 v 1.37687 1.37687 h -0.34422 -0.34422 z"
         id="path4536" />
    </g>
  </g>
</svg>
