<?xml version="1.0" encoding="iso-8859-1"?>
<!-- Generator: Adobe Illustrator 19.0.0, SVG Export Plug-In . SVG Version: 6.00 Build 0)  -->
<svg version="1.1" id="Layer_1" xmlns="http://www.w3.org/2000/svg" xmlns:xlink="http://www.w3.org/1999/xlink" x="0px" y="0px"
	 viewBox="0 0 512 512" style="enable-background:new 0 0 512 512;" xml:space="preserve">
<polygon points="443.552,461.672 512,461.68 512,110.912 0,110.912 0,461.68 443.568,461.68 "/>
<polygon style="fill:#666666;" points="434.288,104.096 452.168,121.976 512,121.976 512,104.096 "/>
<g style="opacity:0.4;">
	<polygon style="fill:#FFFFFF;" points="512,445.08 132.848,445.08 115.248,427.656 0,427.656 0,423.656 116.888,423.656 
		134.496,441.08 512,441.08 	"/>
</g>
<polygon style="fill:#666666;" points="0,110.912 512,110.912 512,75.712 194.856,75.712 169.184,50.32 0,50.32 0,81.04 "/>
<g style="opacity:0.35;">
	<rect y="50.32" style="fill:#FFFFFF;" width="41.392" height="60.576"/>
</g>
<g style="opacity:0.35;">
	<rect y="50.32" style="fill:#FFFFFF;" width="20.696" height="60.576"/>
</g>
<path style="fill:#FFFFFF;" d="M256,384.536l-102.488-104.48l34.96-34.112l43.032,43.864V180.792h48.984v109.024l43.032-43.864
	l34.96,34.112L256,384.536z M162.016,280.152L256,375.976l93.984-95.832l-26.368-25.736l-49.128,50.088V186.792h-36.984v117.712
	l-49.128-50.088L162.016,280.152z"/>
<g>
</g>
<g>
</g>
<g>
</g>
<g>
</g>
<g>
</g>
<g>
</g>
<g>
</g>
<g>
</g>
<g>
</g>
<g>
</g>
<g>
</g>
<g>
</g>
<g>
</g>
<g>
</g>
<g>
</g>
</svg>
